/* XPM */
static char *cb4f70e1ef7f407cfd2926c0bc31fe75TjTn1t9AVF2aCN8H[] = {
/* columns rows colors chars-per-pixel */
"32 32 14 1 ",
"  c #21110D",
". c #342319",
"X c #242A3D",
"o c #503625",
"O c #755338",
"+ c #745C48",
"@ c #414B66",
"# c #81664F",
"$ c #8F7055",
"% c #9E7C59",
"& c #B08A63",
"* c #C2986D",
"= c #677598",
"- c #B6BEC8",
/* pixels */
"*&%&*&%&***%**%&******%&*&&%&***",
"&%%%&%&****%&*%******&%&**&%%&**",
"&%&&%%****&%&*%&**&&&&%&**&%%&&&",
"%&**&%&**&%%%&%%&&%%%%%%&&&%%%%%",
"%&**&%%&&&%%%%&&%%%&&&&&%%%&&%%%",
"%%&&%%%%%%&&%&**&&%&***&%&***&%%",
"&%%%&&&&%&*&%&****&%****%&&&&&%&",
"&%&&***&%***&%&***&%***&%%%%%%%*",
"&%&*****%&*&&%%&**&%&&&&%%%&&&%&",
"%%&*****&%            %%&%%&**&%",
"*%&*****& o==oooooo==o &*&%&***%",
"**%&&&&&& O--OOOOOO--O ***&%**&%",
"&&%%%%%%% O--OOOOOO--O *&&&%&&%%",
"%%%%&&&%& O--OOOOOO--O &%%%%%%&&",
"&&%%&*&%& O--OOOOOO--O %&&&&%&**",
"**&%&*&%& o==oooooo==o %&*&%&***",
"**&%&&&%& ====----==== %&&&%&***",
"*&%%%%%&% .@@.@XX@.@@. %%%%%&***",
"&%&&%&&*# .==o=XX=o==. #***&%&&&",
"%&*&%&**$ .==o====o==. #&&&&%%%%",
"%&&%&***$ .==oooooo==. +%%%%%&&&",
"%%%%&***$# ==oooooo== ##&&%&&**&",
"&&&&%&*&&+++#$$$$$#+#$$**&%&***%",
"&***&%&%%&&#+#$$$$$#+&****&%&**%",
"*****&%&&***&%&****&%%&**&%&%&&%",
"&*****%&*****&%&&&&%&&%&&%&*&%%%",
"%&*&&&%******%%%%%%&**&%%&***&%%",
"%&&%%%%&****&%&&&&%&***%&****&%%",
"%&%&&&&%&&&&%%&**&%****%*****&%%",
"*%&***&%%%%%%%%&&%%&&*&%&****&%&",
"*%*****&%&&%&&&%%&&%%&%%%&&&&%&*",
"*%&***&%&*&%***%&****%%%&%%%%&**"
};
