/* XPM */
static char *_3f2d117837e4c32ec0a50c75508314eW0HPrLbpHefUlLAz[] = {
/* columns rows colors chars-per-pixel */
"32 32 164 2 ",
"   c #000000",
".  c #0D120C",
"X  c #111F0A",
"o  c #0F220E",
"O  c #11220E",
"+  c #142614",
"@  c #182716",
"#  c #192917",
"$  c #1B2D19",
"%  c #183C15",
"&  c #1B3519",
"*  c #222F1F",
"=  c #21311F",
"-  c #203D1B",
";  c #273027",
":  c #283326",
">  c #23451E",
",  c #2C4628",
"<  c #2F482C",
"1  c #30482C",
"2  c #364432",
"3  c #374A34",
"4  c #3E4B3B",
"5  c #385B33",
"6  c #2E7226",
"7  c #0D9807",
"8  c #0E9908",
"9  c #1B9E15",
"0  c #1CA016",
"q  c #288E20",
"w  c #348728",
"e  c #338A2B",
"r  c #3B8F2E",
"t  c #2B9226",
"y  c #2F9827",
"u  c #2D9928",
"i  c #33962A",
"p  c #3C8E32",
"a  c #3B9135",
"s  c #3B9F32",
"d  c #29A325",
"f  c #31A928",
"g  c #3EAD33",
"h  c #428238",
"j  c #418C3A",
"k  c #409833",
"l  c #46913E",
"z  c #48923F",
"x  c #459C3C",
"c  c #499C3B",
"v  c #42A737",
"b  c #43AD35",
"n  c #48A43B",
"m  c #46AE39",
"M  c #4AAD3D",
"N  c #46B837",
"B  c #47B53C",
"V  c #48B53C",
"C  c #46B938",
"Z  c #4BBC3D",
"A  c #4EC23F",
"S  c #479341",
"D  c #499241",
"F  c #4D9B45",
"G  c #4E9A48",
"H  c #509344",
"J  c #529D47",
"K  c #529A49",
"L  c #5B9E4E",
"P  c #5B8A55",
"I  c #569C50",
"U  c #4EA544",
"Y  c #4EA747",
"T  c #53AC46",
"R  c #56A44A",
"E  c #50A34F",
"W  c #58AB4C",
"Q  c #51B643",
"!  c #59B047",
"~  c #54BB46",
"^  c #55B64A",
"/  c #5AB24B",
"(  c #5DBB4E",
")  c #5EA159",
"_  c #5EB250",
"`  c #5EBF54",
"'  c #61A657",
"]  c #63AD57",
"[  c #62A659",
"{  c #6AA35F",
"}  c #64AC5C",
"|  c #63BF54",
" . c #62B759",
".. c #6ABC5D",
"X. c #768E71",
"o. c #6DAE64",
"O. c #6FAA68",
"+. c #6CB365",
"@. c #6DBE64",
"#. c #7CBB73",
"$. c #4FC341",
"%. c #54C345",
"&. c #57C548",
"*. c #5EC34D",
"=. c #5BCA4B",
"-. c #5EC153",
";. c #64C655",
":. c #63CC52",
">. c #6ACF56",
",. c #6AC55C",
"<. c #67CA58",
"1. c #6ACC5B",
"2. c #6DD45C",
"3. c #6FC661",
"4. c #6CC860",
"5. c #73C465",
"6. c #73CB64",
"7. c #74C56A",
"8. c #78C76F",
"9. c #79CB6D",
"0. c #73D262",
"q. c #72D863",
"w. c #7EDA6E",
"e. c #79C671",
"r. c #7DC970",
"t. c #7DD076",
"y. c #80D76E",
"u. c #82CE76",
"i. c #84C279",
"p. c #84CF79",
"a. c #85D077",
"s. c #85D17A",
"d. c #8AD27D",
"f. c #9FB49D",
"g. c #8DC884",
"h. c #93C48C",
"j. c #92CB8D",
"k. c #98CF8D",
"l. c #8CD682",
"z. c #92D087",
"x. c #94DA87",
"c. c #96D18D",
"v. c #95DB89",
"b. c #98C493",
"n. c #99CC90",
"m. c #9CD594",
"M. c #9ADD90",
"N. c #A1DE96",
"B. c #A1D599",
"V. c #A3DC99",
"C. c #A9DF9F",
"Z. c #A1E093",
"A. c #A2E098",
"S. c #A9CEA4",
"D. c #A4D5A0",
"F. c #A9D5A3",
"G. c #ACD8A5",
"H. c #B3D9AC",
"J. c #BFD9BA",
"K. c #BFDDBB",
"L. c #ACE2A2",
"P. c #B4E6A9",
"I. c #C7E3C3",
"U. c #C8E2C4",
/* pixels */
"9 9 9 @.k.k.8.9 9 b M M  .h.j.j.J.J.K.v.w.w.q.6.6.R l l ' k.k.k.",
"9 9 9 @.n.k.e.9 9 v M M  .j.j.j.J.J.J.v.w.y.y.0.6.J l l ' k.n.k.",
"9 9 9 @.k.k.e.9 9 b M M  .j.j.j.J.J.J.v.w.y.a.6.6.J z l [ k.k.k.",
"B B B U U U U B B m m m ^ 8.8.8.O.O.O.6.q.q.0.| | i.b.b.#.R U U ",
"` ` ` s q q i -.` m b b Q 4.4.4.S S z | 2.2.0.( _ F.K.K.f.q q q ",
"` ` ` g q q u ` -.M b b Q ,.4.,.S j j | 2.2.1.( ` F.K.K.i.q q q ",
"..,.;.v i u i K G p w w x 5.6.6.S D z U W W W H D S.J.K.g.u u u ",
"s.l.l.-.N C r           < l.l.d.G G G &           f.I.I.m.N N N ",
"l.d.l.*.N N r           1 l.l.l.G J G &           f.U.U.m.N N N ",
"<.<.<.&.A A a           > <.;.1.m n n %           { u.p.6.A A A ",
";.;.;.&.%.A k           > ;.;.;.b b V %           L 6.6.;.A %.A ",
";.;.;.&.A %.k           > ;.;.;.b B m %           L 6.6.<.%.A A ",
";.| | ;.;.;.W - > , , < 5 h h h 6 6 6 5 4 4 2 $ $ W 1.1.<.;.=.;.",
"] / _ 7.p.p.9./ / t.l.l.P             X.H.H.n.l j ~ =.=.1.a.s.p.",
"/  ./ 7.p.s.9._ ] a.l.s.P             X.H.H.b.j j ~ =.=.1.p.p.p.",
"] / _ 7.u.p.8.] / a.s.l.P             X.H.H.b.j a ~ =.=.1.s.p.p.",
"z S z #.c.k.i.D z +                         $ :.:.M.G.G.D.k.c.c.",
"z S S #.c.c.i.D D O                         & ;.:.m.G.G.B.k.c.c.",
"S S D #.c.c.i.S D o                         & :.:.m.F.F.B.c.c.c.",
"I I I g.C.C.k.I L +                         # ( ( ..o.o.i.A.G.L.",
") ) ) k.P.P.V.) ) +                         @ / ( c F D +.P.P.P.",
") ) ) k.P.P.m.) ) +                         # ( ( J F F +.P.P.P.",
"o._ } z.A.N.c._ } #     . = = = : ; : .     # T T E E E +.N.C.A.",
"t.w.w.2.:.:.1.w.w.*     1 d.d.d.B.B.B.3     X e e ( ;.;.;.:.:.:.",
"w.w.w.2.:.:.>.w.w.*     1 d.d.d.B.B.B.3     O w e ( <.<.<.:.:.:.",
"N.Z.N.5.( / ,.Z.N.] K K c d d d ! ^ ^ M c c n N C ,.9.9.,.( ( ~ ",
"A.L.L.7.! _ ..L.L.6.<.<.V 7 8 7 g g b A =.=.&.A $.6.t.t.3./ / ! ",
"L.L.L.7.! W ..A.L.9.;.,.V 8 8 8 g g g %.=.=.=.A $.3.t.t.7./ / ! ",
"N.N.N.5.( / ..Z.N...^ / g 8 8 8 f f f Z *.*.=.Z Z 9.l.d.8.^ ^ / ",
"l.x.l.3.| ( ,.x.x.G a a t 8 8 8 0 0 0 C *.*.&.b b s.M.M.s.` | | ",
"l.x.l.6.( ( ,.z.l.G a a t 8 8 8 0 9 9 C *.*.&.g b s.M.M.a.*.( ( ",
"l.l.l.3.( | ,.l.l.G a a t 8 8 8 0 9 9 V ( *.&.b b s.M.M.a.( ( ( "
};
