/* XPM */
static char *a4c4876dec7e40e6919b788a4a28a253NU0CSQyhjJeBE6sI[] = {
/* columns rows colors chars-per-pixel */
"32 32 12 1 ",
"  c #7B7B7B",
". c #09CAF7",
"X c #36D3F8",
"o c #72E0FA",
"O c gray51",
"+ c #909090",
"@ c gray65",
"# c #B6B6B6",
"$ c gray73",
"% c #96DEF8",
"& c #93E7FB",
"* c #CBF3FD",
/* pixels */
"@@++++++++@@####OO##@@++++++++@@",
"@@++++++++@@####OO##@@++++++++@@",
"@@@@############@@######OO@@@@++",
"@@@@############@@######OO@@@@++",
"@@OO++++XX++++++##++@@@@&&XX@@@@",
"@@OO++++XX++++++##++@@@@&&XX@@@@",
"@@##@@@@@@OO@@**&&@@++++++++++@@",
"@@##@@@@@@OO@@**&&@@++++++++++@@",
"@@####++++++++++++++##########OO",
"@@####++++++++++++++##########OO",
"++++@@@@@@**%%++@@OO**%%@@@@OO@@",
"++++@@@@@@**%%++@@OO**%%@@@@OO@@",
"####@@**%%..XX&&@@@@XX&&######OO",
"####@@**%%..XX&&@@@@XX&&######OO",
"@@@@@@++++++++++++++++++++++@@@@",
"@@@@@@++++++++++++++++++++++@@@@",
"@@&&XX  $$++@@@@**&&############",
"@@&&XX  $$++@@@@**&&############",
"@@++++++++++++&&XX..XX++++++##@@",
"@@++++++++++++&&XX..XX++++++##@@",
"@@@@$$++XX$$$$++@@++$$$$$$@@@@@@",
"@@@@$$++XX$$$$++@@++$$$$$$@@@@@@",
"OO@@@@@@++@@@@@@$$$$@@%%&&$$$$OO",
"OO@@@@@@++@@@@@@$$$$@@%%&&$$$$OO",
"@@++++++++++++++%%**&&XXXX&&++@@",
"@@++++++++++++++%%**&&XXXX&&++@@",
"@@$$@@&&XX@@@@++++oooo++@@@@$$$$",
"@@$$@@&&XX@@@@++++oooo++@@@@$$$$",
"@@@@@@++++++++++@@@@$$$$@@++++@@",
"@@@@@@++++++++++@@@@$$$$@@++++@@",
"++++++++OO$$$$@@@@@@@@++++++@@@@",
"++++++++OO$$$$@@@@@@@@++++++@@@@"
};
