/* XPM */
static char *_4efba0720fe4e569d16d9c01781bbcblP4IcIxQpk3Oa4S0[] = {
/* columns rows colors chars-per-pixel */
"32 32 150 2 ",
"   c #5A3D28",
".  c #59432A",
"X  c #5B452A",
"o  c #5D432C",
"O  c #5C472C",
"+  c #5F482C",
"@  c #5F4B2E",
"#  c #5B4D2D",
"$  c #5D512D",
"%  c #5C552E",
"&  c #5F542F",
"*  c #5D572F",
"=  c #5B4730",
"-  c #61432D",
";  c #62422E",
":  c #63432E",
">  c #62442E",
",  c #65452E",
"<  c #64462F",
"1  c #62532F",
"2  c #664730",
"3  c #664731",
"4  c #664934",
"5  c #674A35",
"6  c #634C35",
"7  c #644E37",
"8  c #684831",
"9  c #694931",
"0  c #694A32",
"q  c #6A4A32",
"w  c #6C4B33",
"e  c #704F35",
"r  c #724F36",
"t  c #734E37",
"y  c #645537",
"u  c #645A38",
"i  c #755238",
"p  c #765338",
"a  c #775338",
"s  c #775239",
"d  c #775439",
"f  c #77543A",
"g  c #75553C",
"h  c #76563D",
"j  c #79543A",
"k  c #7A553A",
"l  c #7A563A",
"z  c #7B563B",
"x  c #79573E",
"c  c #7C573C",
"v  c #78583F",
"b  c #7C583C",
"n  c #7F593C",
"m  c #7F5A3D",
"M  c #765842",
"N  c #795840",
"B  c #7B5940",
"V  c #7D5941",
"C  c #7D5B42",
"Z  c #665E59",
"A  c #6A615C",
"S  c #72675F",
"D  c #805A3E",
"F  c #815B3E",
"G  c #835C3F",
"H  c #805D43",
"J  c #845D40",
"K  c #815E44",
"L  c #896042",
"P  c #8B6243",
"I  c #8A6144",
"U  c #8B6444",
"Y  c #8C6445",
"T  c #8E6545",
"R  c #8E6645",
"E  c #8D6546",
"W  c #8E6646",
"Q  c #8E684A",
"!  c #906645",
"~  c #906747",
"^  c #916847",
"/  c #926748",
"(  c #936948",
")  c #956B4A",
"_  c #966B4A",
"`  c #976C4A",
"'  c #976D4A",
"]  c #956D4E",
"[  c #966F4F",
"{  c #996D4A",
"}  c #9A6F4C",
"|  c #9B704D",
" . c #9E714E",
".. c #9A7251",
"X. c #A27450",
"o. c #A77652",
"O. c #A77853",
"+. c #A87853",
"@. c #A97954",
"#. c #AA7A54",
"$. c #AB7A54",
"%. c #AC7B54",
"&. c #AE7C55",
"*. c #AC7C56",
"=. c #AE7C56",
"-. c #AE7D57",
";. c #B07E57",
":. c #B07F58",
">. c #817973",
",. c #857B73",
"<. c #877C74",
"1. c #588C2D",
"2. c #56962C",
"3. c #5F8B34",
"4. c #5F9435",
"5. c #69933E",
"6. c #629D38",
"7. c #629E38",
"8. c #669F3C",
"9. c #61A237",
"0. c #66A53C",
"q. c #66A73C",
"w. c #69A33E",
"e. c #6AA43F",
"r. c #6AA73F",
"t. c #68A83E",
"y. c #68AA3E",
"u. c #6B9640",
"i. c #6B9940",
"p. c #6BA240",
"a. c #6FA743",
"s. c #6AAB40",
"d. c #6BAD41",
"f. c #6FA845",
"g. c #6FAD44",
"h. c #7BA64C",
"j. c #74B44A",
"k. c #76B44B",
"l. c #76B54B",
"z. c #75B74B",
"x. c #79B74F",
"c. c #79B94F",
"v. c #7FB954",
"b. c #80A352",
"n. c #80B450",
"m. c #8CB15C",
"M. c #87BA58",
"N. c #8EBF5E",
"B. c #8DC15E",
"V. c #90C361",
/* pixels */
"j.j.z.z.j.k.p.y.r.r.e.i.9.9.d.d.c.c.c.c.g.g.q.s.q.s.9.9.2.2.d.d.",
"j.j.z.z.l.l.y.a.y.q.e.e.9.9.y.g.c.c.x.c.g.g.s.q.s.q.9.4.2.2.d.d.",
"j.l.a.a.M.M.n.n.h.h.% % 8.8.6.6.w.q.B.B.N.N.j.j.6.6.q.s.q.q.q.p.",
"j.l.a.a.M.M.n.n.h.h.1 y 8.8.6.6.0.r.B.B.N.B.z.j.6.6.s.q.q.q.w.r.",
"b.b.u u m.m.p.p.r.r.# # 5.5.% % p.a.M.v.V.V.m.m.% 1 1.1.4.4.$ $ ",
"b.h.u u m.m.p.p.5.w.# # 5.5.% % f.a.M.n.V.V.m.m.1 % 1.1.4.4.$ $ ",
"7 7 A A 6 7 1 1 i.i.@ @ o o O O 3.3.* * i.u.y y e e O > X X q p ",
"7 7 A A 6 7 1 1 i.5.@ @ o o O O 3.3.* * u.u.y y t t @ @ X o e e ",
"L P N N / / o.o.8 w J E j p e e o o     ; ; Z Z C n L L : - k k ",
"L P x x / / o.o.8 w E J p p e e o         ; Z Z N N L L - : k k ",
"D c , , / / _ _ V V / / > , - - - 2 t s N N 8 8 j p c c c c %.@.",
"c c , , / / _ ( V C Y / > , > - ; ; s t H t 8 w p N c c k c %.%.",
"@.O.k n b n L J <.<.C C x j $.$.+.=.c J *.b.=.=.D D E U D D { { ",
"+.+.k k D C L L <.<.C C c j $.$.+.%.c c -.&.=.=.n z U ! D D { _ ",
"D D D n %.&.;.;.] [ / / c z D D / / w w ' ( ' ' n k z z E E ( ( ",
"D D n n $.$.b.;.] ] / _ x z D D / W q q ( ' ' { k h z z E E ( ( ",
"R ~ z z z n ^ ^ c D E / a t o o k k E U ~ ~ k k n b D t 2 : D D ",
"Q ~ z n F z _ ^ D D ! J a a - o x k E ! ~ ^ n n b n D J ; ; t D ",
"z m E ~ 8 > k n x z - - 9 , j t a a D F C D k b h.:.:.;.J J J / ",
"m m E E o 8 n D D z o 2 o 3 s j a a F F n b b z :.:.:.;.H G U / ",
"m m ~ ~ z z ;.-.;.%.J J o.o./ / q 5 *.%.%.%.8 8 / E ....>.<.H N ",
"F m R ^ D k &.&.%.;.G G $.;._ / 5 5 *.&.%.*.8 8 E _ ..X.>.>.N N ",
"~ R z l D D ` _  . .%.%.K K / ] S S ] ] ] ^ z a ; ; _ J K K ; : ",
"R R l l D D / _  . .=.%.E J Q K S S ] ] ^ { a a 3 3 J / H H 8 : ",
"l a < < ~ U n n / /  . .@.@.J J h h p j n D a a s s J J :.;.;.;.",
"a a , 6 U U m z K /  . .=.=.J J h h p b D z a a s t J J %.;.;.;.",
"z b ~ U v z b b N N H s / _ / / c c w w X.X.q 9 j j $.+. . .} } ",
"b b U U z b b b N N s s / _ / J c c q q X.X.q q j j +.$. . .} } ",
"( ^ k b 8 0 *.O.K J   ; g h q q @.%.-.-.J J Y ! b b J D / / _ Q ",
"( ^ x z 0 0 $.O.K J 3 ; g g q q -.%.-.@.J J E J n n F F / / _ / ",
"( ( F n O.o. . ./ J H K S h.N N { { { } z z z C ( W ( ( c c 3 o ",
"( ( n z O.O. . .E J V Z >.<.N N { { {  .z z D b / ( E / c x o 8 "
};
