/* XPM */
static char *d88cf872d23e4564d86177ce8430e709qxLQxP0RIpPKYoSm[] = {
/* columns rows colors chars-per-pixel */
"32 32 97 2 ",
"   c black",
".  c #8C460B",
"X  c #9C540B",
"o  c #9C5A0B",
"O  c #944D14",
"+  c #944619",
"@  c #9F5710",
"#  c #9C5416",
"$  c #A4550C",
"%  c #A45A0B",
"&  c #A45F0B",
"*  c #A45B0F",
"=  c #A45A14",
"-  c #A45F14",
";  c #A75D19",
":  c #A4591E",
">  c #A95F1B",
",  c #B45C10",
"<  c #AC6713",
"1  c #AB6117",
"2  c #AC6014",
"3  c #AE6817",
"4  c #A4601E",
"5  c #AE6318",
"6  c #AF621D",
"7  c #AC611E",
"8  c #AF651F",
"9  c #AC681F",
"0  c #B46514",
"q  c #B46C14",
"w  c #B2641C",
"e  c #B2651F",
"r  c #B4651C",
"t  c #A45D2D",
"y  c #A46924",
"u  c #AD6820",
"i  c #AC682E",
"p  c #B46525",
"a  c #B46B22",
"s  c #B46C21",
"d  c #BA6D22",
"f  c #BC6D22",
"g  c #B76C29",
"h  c #B46D2D",
"j  c #BC6E2D",
"k  c #AC7423",
"l  c #AC742D",
"z  c #B37222",
"x  c #B47323",
"c  c #B27124",
"v  c #BC7423",
"b  c #B3712E",
"n  c #B4742D",
"m  c #BA732B",
"M  c #BC752E",
"N  c #B47B2B",
"B  c #BC7B2A",
"V  c #B47F33",
"C  c #BF7B30",
"Z  c #BC7C35",
"A  c #C47423",
"S  c #C4752E",
"D  c #C47C2B",
"F  c #CC7D2A",
"G  c #C67E31",
"H  c #C47D36",
"J  c #CC7C34",
"K  c #9E7C59",
"L  c #BC822B",
"P  c #B48330",
"I  c #BC8236",
"U  c #BC8734",
"Y  c #B4883C",
"T  c #C4822B",
"R  c #C3802E",
"E  c #CC822B",
"W  c #C48733",
"Q  c #C48237",
"!  c #C28D31",
"~  c #C4883E",
"^  c #CC883C",
"/  c #D18532",
"(  c #D08732",
")  c #D68838",
"_  c #CC9234",
"`  c #B08A63",
"'  c #C08245",
"]  c #C68A40",
"[  c #C48E40",
"{  c #CC8E46",
"}  c #C48A4C",
"|  c #C49341",
" . c #CC9442",
".. c #CC9A4D",
"X. c #D49A43",
"o. c #D49A4D",
"O. c #C2986D",
/* pixels */
"O.` K ` O.` K ` O.O.O.K O.O.K ` O.O.O.O.O.O.K ` O.` ` K ` O.O.O.",
"` K K K ` K ` O.O.O.O.K ` O.K O.O.O.O.O.O.` K ` O.O.` K K ` O.O.",
"` K ` ` K K O.O.O.O.` K ` O.K ` O.O.` ` ` ` K ` O.O.` K K ` ` ` ",
"K ` O.O.` K ` O.O.` K K K ` K K ` ` K K K K K K ` ` ` K K K K K ",
"K ` O.O.` K                                       K K ` ` K K K ",
"K K ` ` K K   r r r r r % > ( % $ r r 2 2 r 2 r   ` O.O.O.` K K ",
"` K K K ` `   r r r r r > s ( $ X r r 2 2 r 2 r   ` ` ` ` ` K ` ",
"` K ` ` O.O.  2 2 2 , - s s ( B B 2 2 2 8 2 2 2   K K K K K K O.",
"` K ` O.O.O.  2 2 2 2 2 B v ( I ~ 2 2 2 < 2 2 2   K K ` ` ` K ` ",
"K K ` O.O.O.  M s 2 2 s x M ( ; Q I Z n r : = 4   K K ` O.O.` K ",
"O.K ` O.O.O.  D v s 9 x M B R z n z a u 2 # X 2   ` K ` O.O.O.K ",
"O.O.K ` ` `   M v f x x v M C s a a v H 2 ^ ^ A   O.` K O.O.` K ",
"` ` K K K K   v s - o & - k G o & A S B 2 Z D D   ` ` K ` ` K K ",
"K K K K ` `   p a p a u s M ) Y I P P I [ ! | |   K K K K K ` ` ",
"` ` K K ` O.  D H D Q Q B B B } ~  .X.o... ._ |   ` ` ` K ` O.O.",
"O.O.` K ` O.  L T Q W T D x x c y l Z Q ~ I Z k   O.` K ` O.O.O.",
"O.O.` K ` `   I N n x x a u a i a a b M Z H H J   ` ` K ` O.O.O.",
"O.` K K K K   { ~ ' n h b j h > :  .{ b $ { b {   K K K ` O.O.O.",
"` K ` ` K `   r 2 1 = $ + . g = O t y t > > t >   O.O.` K ` ` ` ",
"K ` O.` K `   r 2 1 $ X # % - 1 = > > 1 s p a w   ` ` ` K K K K ",
"K ` ` K ` O.  2 2 7 a a r x < f 0 , , q 9 , q ,   K K K K ` ` ` ",
"K K K K ` O.  5 0 3 d m v 2 2 * < w e r  .s r r   ` K ` ` O.O.` ",
"` ` ` ` K `   D D D D D s 3 2 s a D D D 1 D D D   ` K ` O.O.O.K ",
"` O.O.O.` K   2 2 2 2 2 v v s d d 2 2 9 u ; u ;   O.` K ` O.O.K ",
"O.O.O.O.O.`   H H H H H B D v a v x M B , H F H   ` K ` K ` ` K ",
"` O.O.O.O.O.  X X X X X q v v 3 a X X $ s X $ X   K ` O.` K K K ",
"K ` O.` ` `   M M M M M v v v E D M M D D M D M   ` O.O.O.` K K ",
"K ` ` K K K                                       O.O.O.O.` K K ",
"K ` K ` ` ` ` K ` ` ` ` K K ` O.O.` K O.O.O.O.K O.O.O.O.O.` K K ",
"O.K ` O.O.O.` K K K K K K K K ` ` K K ` ` O.` K ` O.O.O.O.` K ` ",
"O.K O.O.O.O.O.` K ` ` K ` ` ` K K ` ` K K ` K K K ` ` ` ` K ` O.",
"O.K ` O.O.O.` K ` O.` K O.O.O.K ` O.O.O.O.K K K ` K K K K ` O.O."
};
