/* XPM */
static char *_24162eddfe948b593c7bd880d8905589DQ5onyNKS19kUJa[] = {
/* columns rows colors chars-per-pixel */
"32 32 254 2 ",
"   c #370800",
".  c #352C00",
"X  c #4C0000",
"o  c #5C0200",
"O  c #560900",
"+  c #5B1900",
"@  c #471800",
"#  c #650800",
"$  c #790D00",
"%  c #671800",
"&  c #771800",
"*  c #482700",
"=  c #503000",
"-  c #692800",
";  c #7C2A00",
":  c #743600",
">  c #7A3C07",
",  c #6A3F0C",
"<  c #5C4700",
"1  c #595E00",
"2  c #764602",
"3  c #724F0B",
"4  c #576200",
"5  c #757018",
"6  c #820800",
"7  c #871900",
"8  c #9F1614",
"9  c #9F1306",
"0  c #A71601",
"q  c #B6180F",
"w  c #B01210",
"e  c #8A2300",
"r  c #852704",
"t  c #952B00",
"y  c #952703",
"u  c #8B3605",
"i  c #9B3201",
"p  c #973A07",
"a  c #943715",
"s  c #AD2706",
"d  c #B62C05",
"f  c #AB3300",
"g  c #A53B04",
"h  c #B93705",
"j  c #B52813",
"k  c #BA3619",
"l  c #A73114",
"z  c #A71F21",
"x  c #B62329",
"c  c #B53928",
"v  c #A93123",
"b  c #CA1718",
"n  c #D71A1A",
"m  c #CD140A",
"M  c #E11915",
"N  c #C63C04",
"B  c #C52619",
"V  c #D92A19",
"C  c #C73919",
"Z  c #C1240B",
"A  c #E3311B",
"S  c #DA1A24",
"D  c #E01324",
"F  c #C52925",
"G  c #D62726",
"H  c #C83727",
"J  c #D63927",
"K  c #C82836",
"L  c #DA3532",
"P  c #C93333",
"I  c #E62A2A",
"U  c #E73828",
"Y  c #E73532",
"T  c #EC293A",
"R  c #874802",
"E  c #9B4807",
"W  c #9B581A",
"Q  c #93530E",
"!  c #AC4402",
"~  c #A64A0B",
"^  c #B64400",
"/  c #AA5601",
"(  c #BD5500",
")  c #AA4616",
"_  c #B74619",
"`  c #B75518",
"'  c #A55217",
"]  c #8D7218",
"[  c #B86318",
"{  c #AA6B12",
"}  c #A9452A",
"|  c #B7552B",
" . c #B55030",
".. c #97772C",
"X. c #926A2D",
"o. c #BD6A2C",
"O. c #A97A27",
"+. c #BF722E",
"@. c #C74805",
"#. c #CA5D02",
"$. c #D65A0A",
"%. c #CA4819",
"&. c #C85315",
"*. c #D7561B",
"=. c #DA430E",
"-. c #F05115",
";. c #D3630E",
":. c #D5721B",
">. c #DF7818",
",. c #C86F16",
"<. c #E4670D",
"1. c #F86D0D",
"2. c #F7770D",
"3. c #EB6717",
"4. c #FB691A",
"5. c #EA7718",
"6. c #FA7818",
"7. c #D84022",
"8. c #C75828",
"9. c #D55A2B",
"0. c #C64735",
"q. c #DB4934",
"w. c #C75736",
"e. c #D85A3A",
"r. c #C24425",
"t. c #FA4827",
"y. c #FF592B",
"u. c #E34836",
"i. c #F65B38",
"p. c #E7512A",
"a. c #C96529",
"s. c #DC6729",
"d. c #C87B26",
"f. c #D57A25",
"g. c #DA7236",
"h. c #CA6937",
"j. c #E66A27",
"k. c #FB6827",
"l. c #E97927",
"z. c #F77729",
"x. c #E66739",
"c. c #FD6633",
"v. c #E87634",
"b. c #FD7539",
"n. c #DB3544",
"m. c #F63943",
"M. c #BE6441",
"N. c #DD4B4D",
"B. c #D7554B",
"V. c #E74941",
"C. c #FF595B",
"Z. c #FC4E49",
"A. c #DA7746",
"S. c #DF755A",
"D. c #D16B4D",
"F. c #EB7546",
"G. c #FC7A46",
"H. c #ED7052",
"J. c #EB5A61",
"K. c #F87D66",
"L. c #FF7A78",
"P. c #F36D6C",
"I. c #928732",
"U. c #8E8627",
"Y. c #A68536",
"T. c #A79737",
"R. c #FB8617",
"E. c #FF941C",
"W. c #D88038",
"Q. c #D79A35",
"!. c #CD8A30",
"~. c #F68926",
"^. c #F69428",
"/. c #EA8634",
"(. c #FA8639",
"). c #ED9339",
"_. c #FD9C35",
"`. c #FB9336",
"'. c #EB8F27",
"]. c #D5AC30",
"[. c #FCA53A",
"{. c #E9B73B",
"}. c #EFA833",
"|. c #E8C23A",
" X c #E9C42E",
".X c #D5C53C",
"XX c #B29045",
"oX c #B8A354",
"OX c #D48B4F",
"+X c #EB8A46",
"@X c #FF8545",
"#X c #F98A47",
"$X c #E79548",
"%X c #FD9344",
"&X c #FC994A",
"*X c #E78559",
"=X c #F9885D",
"-X c #FD9A54",
";X c #ED9753",
":X c #D2AB4E",
">X c #EBA54A",
",X c #FFAB45",
"<X c #FEA44C",
"1X c #F8A947",
"2X c #ECAE59",
"3X c #FEAE51",
"4X c #FFA55C",
"5X c #FAAC5B",
"6X c #E6B55B",
"7X c #FDB55B",
"8X c #EBB846",
"9X c #F88968",
"0X c #FE946E",
"qX c #FA9565",
"wX c #FF8A74",
"eX c #FF9876",
"rX c #E8946E",
"tX c #DCB967",
"yX c #FDA363",
"uX c #FAAB65",
"iX c #EBB766",
"pX c #FEBB6B",
"aX c #FAB865",
"sX c #FEA776",
"dX c #FFB376",
"fX c #FFB879",
"gX c #EEAF6A",
"hX c #DE926E",
"jX c #EBC44B",
"kX c #ECC353",
"lX c #FEC35A",
"zX c #F7C654",
"xX c #E7D456",
"cX c #FFD05C",
"vX c #E7C764",
"bX c #F9C669",
"nX c #FBD363",
"mX c #FDC778",
"MX c #EFD474",
"NX c #FAD676",
"BX c #F6E672",
"VX c #DDCE59",
"CX c #FF9484",
"ZX c #FFA686",
"AX c #FFB394",
"SX c #FFB38E",
"DX c #FFC588",
"FX c #FFDD85",
"GX c #FBD589",
"HX c #FFCB94",
"JX c #FFD798",
"KX c #FFE78E",
"LX c #FFED9D",
"PX c #FFEFA6",
/* pixels */
" X XzX3XW.` p ~ i f @.3.v.g.+.mXbXQ.5XGXiXpX~ :.5.2.R.E.E.}.jXBX",
" X{.1X/.a.^ e & p i f ^ &.+XDXfXuXpXmXmXiXOX/ ,.5.R.R.E.E.].8XxX",
"].{.3XyXeXeX0X*X) ~ r &.qX0X9X8.s.v.+XdXDX[ p l.5.2.R.R.E.^.[.lX",
"Q.3XuXG.J B e.9XsX; & =XsXC 0 u.C h k F.sXa.t :.<.2.2.2.R.^.,XlX",
"GX#X%.Z B B c } E # *XK.0 G Z.G u.U J k 8.=Xd @.3.1.1.1.5.R._.1X",
"9.N Z b B F c  .X o CXwXq Y L S U V u.J C eXN d 4.4.6.6.2.R.^._.",
"V V V G P B.c ; o D.wXb b Z.b G Y w G u.C 9Xi.0 N -.4.k.6.R.'.^.",
"m I I m j 0.M.} a S.C.b n I G m.C.G L j j 9XqX6 s =.<.5.~.R.'.'.",
"M M m I G.B.|  .a wXN.V n n Y L.P.b G L j =XfX! ^ g ! ;.~.^.~.~.",
"n A M A Z.x.a.' E *X0.0 Y m m Z.m.T b j 8.F.2XmX2X2X).,.( #.>.<.",
"C A A t.y.c.v.~ u A.H.s B Z m I D D Y q.h.gXtXU.1 ] :XbX).( d N ",
"r.%.A t.y.c.G.` + ; rXS.j B L V T C.L c *X:X5 4 1 . = U.pX5X3.N ",
"_ _ C y.y.k.@Xf.+.% | *Xc j j u.n.B j A.2XOX] U.5 5 < < O.aXuXz.",
"p l %.k.k.k.`.+XW.u e S.9XK. .w.0.0.ZXHXW - ] T.I.I.I.I.iXFXbXd.",
"r _ %.s.5.l.%X&XuXD.7 6  .S.rXrXhXrXOX+.d.Q : 2 Y.:XGXPXLXNXbXnX",
"$ | 8.*.j.l.&X1X4X+XA.0.v % 2 *   + W $X/.{ [ !.$XfXHXHXGXKXvX:X",
"# } r.h *.v./.1X,X,X%X&X;X; 5 .   u  .h.;X:.'.1X4XqX0XD.OXKXNX!.",
"o & l k %.s./.)._.[._.%X;X> X.* @ - a _ +X:.'.5.b.y.V.B.M.SXbX,.",
"% % u l t g :.'._.,X,X&X$Xu X., O r v l k &.(.@X-.V G N.} qX4X#.",
"- + + % ; ! &.:.<.~.`./.[ % > - O r 8 0 j F.-Xb.V n L N.c eX/.;.",
"..3 @ - W E r i $.l.l.l.&.r u O X 6 8 x x N.x.7.S I n.K B.AX&.$.",
"XXX.5 M.XX: o g z.z.z.#X;XA.o.7 a v x n.F w B Y I S K K L.AXh $.",
"] ..XXoXY.2 p v.z.b.(.-XyXyX=X| CXS.z x P P B H L P K J.CXF.f #.",
"X.I.XX..3 R a.s.b.@X&X4X;XyXsXqXwXCX0.z z P B C H P P CXwXy y #.",
"Q 6XY.] 2 Q | j.G.@X&X4X5XuXdXSXo.*XAXD.v q r.l l w.eXAX*X~ E / ",
"d.2X{ < : Q a.x.b.@X&X5XaXaXpXpXsXa a 9XAXH.e.x.dXDXJXAXfXuX!.: ",
").>X{ - R E 8.x.G.#X-X7XbXbXbXiXaXo.# # w.H.sXyX>XvXDXbXmXKX8X{ ",
"lX1Xo.- ' ~ | 9.F.@X-X7X7XlXkX6X7X$X% X 6 7 &.,.Q.:XMXKXNXNXnX|.",
"cX1Xf.r ` g _ 8.g.#X-X<X<X8XkXkX3Xg.- p e.9.%X3XcXxXBXKXFXmXnXnX",
"lX>X!.& p t p | a./.%X&X_.{.jXjX3X/.r i 9.G.%X^.8XVXBXMXbXbXNXnX",
"{.Q.!.& y y t ~ &.v.(.`._.1X|.8X).^ e 8.x.c.z.[.{.xXBXMXiXgXbXkX",
"].Q.f.7 y t e p ` j.(.`.[.[.|.{.`.^ e _ C c.z.^.{..XVXVXiXaXvXiX"
};
