/* XPM */
static char *e6276513553a4a96cfdd8da84c1c1719RrHm1hMM4TgtAMby[] = {
/* columns rows colors chars-per-pixel */
"32 32 63 1 ",
"  c #863F3F",
". c #8E3C3B",
"X c #933C3B",
"o c #9A3E3D",
"O c #8D403F",
"+ c #91403F",
"@ c #9B403F",
"# c #8D4342",
"$ c #874847",
"% c #8C4847",
"& c #8C4B4B",
"* c #944746",
"= c #9D4443",
"- c #9E4847",
"; c #954B4B",
": c #9F4A49",
"> c #8E504F",
", c #8E5453",
"< c #915C5B",
"1 c #A14D4C",
"2 c #A35352",
"3 c #A55857",
"4 c #A55B5A",
"5 c #A85F5E",
"6 c #946363",
"7 c #996767",
"8 c #966868",
"9 c #9A6C6C",
"0 c #9B706F",
"q c #9C7473",
"w c #9E7A7A",
"e c #A46463",
"r c #AA6564",
"t c #AA6867",
"y c #A36C6B",
"u c #AB6C6B",
"i c #A57372",
"p c #AC7473",
"a c #A57877",
"s c #A37D7D",
"d c #AE7D7D",
"f c #B37D7D",
"g c #A1807F",
"h c #B2807F",
"j c #A48282",
"k c #A98382",
"l c #AF8887",
"z c #A78D8C",
"x c #AD8B8B",
"c c #B58383",
"v c #B38887",
"b c #B38C8C",
"n c #B88B8B",
"m c #B2908F",
"M c #AF9595",
"N c #B29292",
"B c #BD9594",
"V c #B19B9B",
"C c #BF9E9E",
"Z c #B6A4A4",
"A c #BDA5A5",
"S c #BDAFAF",
"D c #C2A6A5",
/* pixels */
"Dr=oo@@@@@o.<Af=@@@@@@@oX&sc-@@@",
"-o@@@@@@o.,sp2@@@@@@@@X&8i2@@@@@",
"o@@@o=o.,sp2@@@@@@@oX%7i2@@@@@@@",
"@@@@o.<ja2@@@@@@@oX&aZ<o@@@@@@@X",
"@=o.,sdv<OX@@@@oX&9i5hx8OX@@oX&9",
"X.,sp2o=4y<OXoX&9i2@oo2hx8OX%qxu",
"<ap2ooo=o=49<>9i2@o@@@oo2dVjlt-o",
"p2oo=ooo@oX>Nd2@@@@@@@oX&qCu-o@@",
"@o@@@@@oX&9i2@o@@@@ooX&qvt-oo@@@",
"@@@@@@X&9i2o@@@@@@oX%qvt-o@@o@@@",
"@@@@X&wa2=o@@@@ooX&qSa@oo@@@@=o.",
"@oX&9ifi>.o@@@oX&qltpk8OX@@@X.<s",
".&9i2=o1y0,.XX&qlt=oo-uk8OX.<sp2",
"9i2@oo@oo1t0<qlt-o@@ooo1tzasp1oo",
"2=o@@@@@@X%xCt-o@@@@@=o.<Nf2@ooo",
"@@o@@@oX%0lt=@@@@@@@oO<sa1oo@@@@",
"@@@ooX%qlu=o@@@@@@XO<dp1oo@@@@@o",
"@@o.&wMt=@@@@@@@o.<NV;oo@@@@@oX&",
"@X&qbvm<Oo@@@@o.<sp4pq,Xo@@o.>sm",
"&qbp-o:us6OXoO<sp1@oo2iw,..>gbr=",
"Np1oo@oo:us66gp1@@@@@o@1ixjbr=oo",
"=ooo@@@@o.7Dp1oo@@@@@o.>jCr=oo@@",
"@@o@@@o.,qu1oo@@@@@o.>sbr@o@@@@@",
"o@@@o.,ai1@@@@@@@oX>sbr=o@@@@@@X",
"@@@.<zi1oo@@@@@oX,zN5=o@@@@@@X#6",
"oX,wpnj,.o@@@oX,sbBx,Xo@@@@X#6dc",
"<ap1o@3ds,.oX,sbt=@3ks,OXXO6ju:o",
"p1@@@@@@3dg6smt=@@@@@4hj<6du:oo@",
"@@@@@@@o.&ZCr=o@@@@@@o.kDu:oo@@@",
"@@@@@o.&abr=o@@@@@@X#<su:oo@@@@@",
"@@@XX>sb5=oo@@o@@+O6au:o@@oo@@o.",
"... wMe+X........,jy*....X....$j"
};
