/* XPM */
static char *ce70da268970454fd8d6d83f1c777cde1u7nEXXcMJ6H56tN[] = {
/* columns rows colors chars-per-pixel */
"32 32 28 1 ",
"  c #2E1E22",
". c #323234",
"X c #5C2E00",
"o c #4D3B39",
"O c #534721",
"+ c #545456",
"@ c #705654",
"# c #767678",
"$ c #964F00",
"% c #9D704C",
"& c #9E7C59",
"* c #8F7772",
"= c #B08A63",
"- c #C2986D",
"; c #D7906E",
": c #354CA1",
"> c #3560BD",
", c #3576DC",
"< c #928A8C",
"1 c #979799",
"2 c #B7A099",
"3 c #B7B7BB",
"4 c #EEBE93",
"5 c #FFE1AF",
"6 c gray85",
"7 c #D9D9DD",
"8 c gray95",
"9 c white",
/* pixels */
"-=&=-=&=---&--&=------&=-==&=---",
"=&&&=&=---o&=oo@@@@ooo&=--=&&=--",
"=&==&&---o*oo*******@@ooooo&&===",
"&=--=&=-o*o@*22**********@@o&&&&",
"&=--=&&=o2o*22****@@@@@@@@o==&&&",
"&&==&&oo@*o****@@*****@@oooo-=&&",
"=&&&=o@**@@@**@**22*******@@o=&=",
"=&==o@**@*@*o@**2*******@@@o&&&-",
"=&=-o*o@*@*2*o@****@@@@@@ooo==&=",
"&&=o@o@*o@2**o4@**2***@@@@@@o-=&",
"-&=-oo**o*2*@444@@*22*****@o---&",
"--&==o*@o**@444444@@****@oo&--=&",
"==&&o*@@o*@445555555@@@oo@o&==&&",
"&&&&o@o;@o4OOO55555OOO4@@;O&&&==",
"==&&=oO;*;46 7555557 64;*;O=&=--",
"--=&=-oO*%48 <55555< 84%*Oo&=---",
"--=&===oO%49XX55555XX94%Oo=&=---",
"-=&&&&&=..;4$$55555$$4;..&&&=---",
"=&==&==.++O;455555554;O++.-=&===",
"&=-=&=.+371O%;44444;%O331+.=&&&&",
"&==&=-.#133#OOOOOOOOO#773#.&&===",
"&&&&=-.+###.137777731.11#.&==--=",
"====&O@#1+.#113111311#.++#.=---&",
"=---=O@@...#11#+++#11#.131.&=--&",
"-----=OO=-.@+++#1#+++@.371.=&==&",
"=-----&=--.+@@@###@@@+O22*O-=&&&",
"&=-===&--.+#1:>171>:1#O**@O--=&&",
"&==&&&&=-.+1#,:#1#:>#1+OOO---=&&",
"&=&====&==.+,,>...331+.&-----=&&",
"-&=---=&&&&+773.=.111.=&=----=&=",
"-&-----=&==.31#+&=...=&&&====&=-",
"-&=---=&=-=.331+=----&&&=&&&&=--"
};
