/* XPM */
static char *_476b56037e349f9aeff8d99fbd66410iVMFGNHTqgGthjZV[] = {
/* columns rows colors chars-per-pixel */
"32 32 26 1 ",
"  c #2E1E22",
". c #323234",
"X c #5C2E00",
"o c #4D3B39",
"O c #534721",
"+ c #545456",
"@ c #705654",
"# c #767678",
"$ c #964F00",
"% c #9D704C",
"& c #9E7C59",
"* c #8F7772",
"= c #B08A63",
"- c #C2986D",
"; c #D7906E",
": c #354CA1",
"> c #928A8C",
", c #979799",
"< c #B7A099",
"1 c #B7B7BB",
"2 c #EEBE93",
"3 c #FFE1AF",
"4 c gray85",
"5 c #D9D9DD",
"6 c gray95",
"7 c white",
/* pixels */
"-=&=-=&=---&-oo@@@@oo-&=-==&=---",
"=&&&=&=----oo@@******oo=o-=&&=--",
"=&==&&---oo@@*****<<<*@o@o=&&===",
"&=--=&=-oo@*********<<*@oo=&&&&&",
"&=--=&&oo@@@@@@@***@@***@oo==&&&",
"&&==&&o@oooooo@******@*@@**o-=&&",
"=&&&=o@o@********<<<**@o*o@*o=&=",
"=&==-o@@o@@@**********@o**o@o&&-",
"=&=-o@@o@oooo@@@@*<**@;@@*@oo=&=",
"&&=--oo@@@o@****<<**@22;@*@o--=&",
"-&=---o**@@o@@****@@2222O@@o---&",
"--&==o**@@*@oooo@@333222O@o&--=&",
"==&&&o**@***OO@@@3OOO322Oo=&==&&",
"&&&&=o*@@**O32O@334 5332O&&&&&==",
"==&&=o@o@**O3%2@336 >332O===&=--",
"--=&=-oo@*@O2%3@337XX33;O-=&=---",
"--=&===oo@@@O;23333$$32%O==&=---",
"-=&&&&&=o@@@o;;2333332;O&&&&=---",
"=&==&==-=o@o%%;;222;;%O=---=&===",
"&=-=&=---=o=..OOOOOOOO&=====&&&&",
"&==&=-----=.+#+,,,15#.&&&&&&&===",
"&&&&=----=.+155#1551,#.===&==--=",
"====&=-==&.#,11+#,,#++.--=&=---&",
"=---=&=&&==.##++,.++#+.---=&=--&",
"-----=&==---.+#,1,.@##.--=&=&==&",
"=-----&=----..##<<O,+.&==&=-=&&&",
"&=-===&-----.:.@*@O#+.=&&=---=&&",
"&==&&&&=----.##OOOO+.#.&=----=&&",
"&=&====&===.#11,#..###.&-----=&&",
"-&=---=&&&&.,111.&&...=&=----=&=",
"-&-----=&==&....&==&&=&&&====&=-",
"-&=---=&=-=&---&=----&&&=&&&&=--"
};
