/* XPM */
static char *_8c24ac2454f4c53ac9f502e8e7f67f6t9G0amNxnXhuWfPV[] = {
/* columns rows colors chars-per-pixel */
"32 32 26 1 ",
"  c #2E1E22",
". c #323234",
"X c #5C2E00",
"o c #4D3B39",
"O c #534721",
"+ c #545456",
"@ c #705654",
"# c #767678",
"$ c #964F00",
"% c #9D704C",
"& c #9E7C59",
"* c #8F7772",
"= c #B08A63",
"- c #C2986D",
"; c #D7906E",
": c #354CA1",
"> c #928A8C",
", c #979799",
"< c #B7A099",
"1 c #B7B7BB",
"2 c #EEBE93",
"3 c #FFE1AF",
"4 c gray85",
"5 c #D9D9DD",
"6 c gray95",
"7 c white",
/* pixels */
"-=&=-=&=---&oo@@@@oo--&=-==&=---",
"=&&&=&=-o-oo******@@oo&=--=&&=--",
"=&==&&-o@o@*<<<*****@@oo--=&&===",
"&=--=&=oo@*<<*********@oo==&&&&&",
"&=--=&oo@***@@***@@@@@@@oo&==&&&",
"&&==&o**@@*@******@oooooo@o--=&&",
"=&&&o*@o*o@**<<<********@o@o==&=",
"=&==o@o**o@**********@@@o@@o&&&-",
"=&=-oo@*@@;@**<*@@@@oooo@o@@o=&=",
"&&=--o@*@;22@**<<****@o@@@oo--=&",
"-&=--o@@O2222@@****@@o@@**o=---&",
"--&===o@O222333@@oooo@*@@**o--=&",
"==&&&&&oO223OOO3@@@OO***@**o==&&",
"&&&&===&O2335 433@O23O**@@*o&&==",
"==&&=-=&O233> 633@2%3O**@o@o&=--",
"--=&=-=&O;33XX733@3%2O@*@oo&=---",
"--=&===&O%23$$33332;O@@@oo=&=---",
"-=&&&&&=&O;2333332;;o@@@o&&&=---",
"=&==&==-=&O%;;222;;%%o@o---=&===",
"&=-=&=---=&OOOOOOOO..&o=====&&&&",
"&==&=-----=.#51,,,##+.&&&&&&&===",
"&&&&=----=.#,1551#111+.===&==--=",
"====&=-==&.++#,,,+51,#.--=&=---&",
"=---=&=&&=.+#++++.++#,#O--=&=--&",
"-----=&==-.##@@@@@.,1,*@O=&=&==&",
"=-----&=---.+,:,5,:.@<<@O&=-=&&&",
"&=-===&----.+#:#1#.#O@@O&=---=&&",
"&==&&&&=---.#51,+.++#OO&=----=&&",
"&=&====&==.11#++.=.##.-&-----=&&",
"-&=---=&&&.11,#.=&...-=&=----=&=",
"-&-----=&==....&&==&&=&&&====&=-",
"-&=---=&=-=&---&=----&&&=&&&&=--"
};
