/* XPM */
static char *d56d4db65ea445e0a9d1bcfa8f968319RrA2h061Ii8oLwnW[] = {
/* columns rows colors chars-per-pixel */
"32 32 18 1 ",
"  c #323234",
". c #4D3B39",
"X c #534721",
"o c #545456",
"O c #705654",
"+ c #767678",
"@ c #9E7C59",
"# c #8F7772",
"$ c #B08A63",
"% c #C2986D",
"& c #D7906E",
"* c #354CA1",
"= c #3560BD",
"- c #3576DC",
"; c #979799",
": c #B7A099",
"> c #B7B7BB",
", c #D9D9DD",
/* pixels */
"%$@$%$@$%%%@%%@$%%%%%%@$%$$@$%%%",
"$@@@$@$%%%%...OOOO..%$.$%%$@@$%%",
"$@$$@@.....OO#######..#.%%$@@$$$",
"@$%%$.OO########:::##O.#.$$@@@@@",
"@$%%$@.OOOOOOOO###::##.:.@@$$@@@",
"@@$$@....OO#####OO####.#O..%%$@@",
"$@@@.OO#######::##O##OOO##O.$$@$",
"$@$$%.OOO#######:##OO#O#O##O.@@%",
"$@$%%...OOOOOO####OO#:#O#O.#.$@$",
"@@$%.OOOOOO######OOO##:O.#O.O.$@",
"%@$%%.O######::#OOO#O###.##..%%@",
"%%@$$$..O#####OOO####O##.O#.%%$@",
"$$@@@@.O..OOOO####O###O#.OO#.$@@",
"@@@@$$X&OOOO#####O####O.O&.O.@$$",
"$$@@$%X&OOO####OO##O##OOO&X.@$%%",
"%%$@$%$XOOOOOOOO##OO#OOOOX$@$%%%",
"%%$@$$$@.O.OOOOO#OOOOO.O.$$@$%%%",
"%$@@@@@$ ..OOOOOOOOOOO.. @@@$%%%",
"$@$$@$$ o+.O.OOOOOOO.O.+o %$@$$$",
"@$%$@$ o;>>. .O.O.O. .;,>o $@@@@",
"@$$@$% +>,,; +.;.;.+ o>>>+ @@$$$",
"@@@@$% o+++ +>,,,,,>+ o++ @$$%%$",
"$$$$@ ;>oo +;>>,,,>>;+ o;+ $%%%@",
"$%%%X#:>;o +;;>>>>>;;+ ;;+ @$%%@",
"%%%%X:::+  Oo++;;;++oO O#X@$@$$@",
"$%%%XO##X% oOOOOOOOOOo XX@$%$@@@",
"@$%$$XXX% o+;=--=--=;+o @$%%%$@@",
"@$$@@@@$% o;+=****=-+;o $%%%%$@@",
"@$@$$$$@$$ o+;*   --=o @%%%%%$@@",
"%@$%%%$@@@@ +++ $ >=; $@$%%%%$@$",
"%@%%%%%$@$$@   @@o;>+ @@@$$$$@$%",
"%@$%%%$@$%$@%%%@$o;;; @@$@@@@$%%"
};
