/* XPM */
static char *_07331ef0674465ade8df399fbbec499wxP9kct0PaRH2Ffa[] = {
/* columns rows colors chars-per-pixel */
"32 32 33 1 ",
"  c #141618",
". c #161A1B",
"X c #1A1F20",
"o c #1D2226",
"O c #1F2629",
"+ c #1F282A",
"@ c #212527",
"# c #212629",
"$ c #242A2D",
"% c #262D31",
"& c #282E32",
"* c #273133",
"= c #2B3235",
"- c #2E3639",
"; c #2F393A",
": c #30373B",
"> c #323A3D",
", c #353D41",
"< c #383F43",
"1 c #364143",
"2 c #394346",
"3 c #3C4549",
"4 c #3D494B",
"5 c #40474C",
"6 c #414A4E",
"7 c #434D51",
"8 c #475155",
"9 c #495256",
"0 c #4B555A",
"q c #4F595E",
"w c #515A5F",
"e c #535C62",
"r c #586167",
/* pixels */
",33<2<,,,,,,%===***==X<<<33$,22,",
",>222,,<,<-=,%****%=%o4,,,2#>22,",
",:332,<,,=,*,+$$$%%%*o4;;,,#-<,1",
">-%,:&@@$%,,X,O+++$%%X+O%-=o&2,>",
"$$=%@@&==$$+$$%%+%-=%++$*&#oX@o$",
"3352>:5541234444434443312211&&>2",
"342>:>>5,,<34444<%3332211,11->-2",
"11>>:>>-*,2<334%,,,322211<111>$2",
";374&&&$&%%%=-,,-,-=<74,-=43=%#=",
"0w3X <&0q83040009900,<<:<;;+e770",
">>,>,:3%<,<31-,,-,,,==%%%%;%e33>",
">>,>%=4,<<,<,-,===-,&$&&$;-%432>",
">>>,&><<32=,====,,=,&&&%*-=--3<>",
">:>>&<-,<-=-=======,$$$$=;&#=,::",
"5>#::,2>3,<,+O$o2<<%2<3,>3>273:<",
",626-:>---=%%q<,333,22435><<53<<",
",>>**;--*%%##0,,,-*,>>>,6,>>>><>",
",>=*;=*%%%%%#<&%,,=,;;>>2>>>><<>",
"1,&--*%%%%%#X<,,&;----;*=;>>>>><",
"1,##&*%%###OX,,,-$----=%%;;>>>>,",
"&->:,-*%=,,%=&,,&$*#$&o$$X2;:--:",
"35664444,<3<<77873w>-**%%.w42333",
"2211,234<-,37<<8434****$@O1>1311",
"21,>,12<,=,,4<<4311-*%%+OO>*;211",
",11,112=<,,,<,<<,,3$%%$$@#=%@-11",
"$$#@OO@$$XXXXo##O$$ OXOoO.OO@@O%",
"3100,65==,<590,e0074409466788886",
",33rr831,,<,<<#e,<24442,>>222>>>",
">,44981;,,=,,<#e,<2443,=->:>,>>>",
",,2243;>#%=,,<-5-,223<,%&-=-;>>>",
"-$&$=-**%%&=&,==$===&&&#$$$%&&==",
">:75,>>177,3<&=%%%==:%9<475%021>"
};
