/* XPM */
static char *c6a3a1076f7e4a9389f4af797f03035f8xl63Tjo96T6dlAK[] = {
/* columns rows colors chars-per-pixel */
"32 32 57 1 ",
"  c #3C362C",
". c #3E382E",
"X c #423B32",
"o c #4B443A",
"O c #4E483E",
"+ c #534C43",
"@ c #575047",
"# c #585047",
"$ c #5B544B",
"% c #5F584E",
"& c #60584F",
"* c #645C53",
"= c #685F56",
"- c #666056",
"; c #686057",
": c #6C645B",
"> c #6F685F",
", c #71695F",
"< c #746C63",
"1 c #796F67",
"2 c #767066",
"3 c #797067",
"4 c #7C746B",
"5 c #7E786E",
"6 c #7F7770",
"7 c #7F7970",
"8 c #81776E",
"9 c #80796F",
"0 c #807770",
"q c #847C73",
"w c #887F76",
"e c #897F78",
"r c #878076",
"t c #898077",
"y c #8C837B",
"u c #8E887E",
"i c #90867E",
"p c #91887F",
"a c #918780",
"s c #958B82",
"d c #998F86",
"f c #979086",
"g c #9A9087",
"h c #9D928A",
"j c #A1968E",
"k c #A2988E",
"l c #A59B92",
"z c #A99E96",
"x c #AAA096",
"c c #ADA29A",
"v c #B1A69D",
"b c #B3A99E",
"n c #B6ABA2",
"m c #BBAEA7",
"M c #C2B5AC",
"N c #C8B8AE",
"B c #C6BBB3",
/* pixels */
"isijjhhdggdsinzzzzjh7szlllBzxxjj",
"tt4dhdjyqa6eo,au0eps>Nllhyhhzchh",
">#+0ytq*+qtayqdt<3yqXltduiiiiupu",
"y14yssyq%shnvhzxlljyo=544484:=ds",
"jhgjhjdd00hkjghhvqq*-udddsdsqqhj",
"jgjgggddd+Xq:X<Mrjhq1hhhjgds44sh",
"gdgdypy>,s vzxzzzljl<5544is4qyhh",
"ieei1eedhhoicczllhsj$yr:;yi0*ikc",
"6q0adghhhyoljjagkmji$bvvvccz444i",
"agghhddjj%:$t:++&nsq,qjjkcjt5;qi",
"40&=#XXXX<lkjzzx4pgjgXtxvih1X..3",
"jde$gcnnbzvbncccl1w99oo*#o*jhhdg",
"jgyhvcvxcixczxszsX:dyhjjhd2hhhgh",
"gg01lczzhjghhjjiq#djigphhd%jgddd",
"==0*#&uyedje4=%OoX:teq9r>#X@#<qe",
"0nljjgs113o4ld1tljip4u<3ydhjht1h",
"99xbzllllkXkjhhkhhhhhcdqlxvvlhcc",
"p9cvllzijyXcddhhhdisdzsyxczzzldh",
"&9psvlw88,Xiedddyiyyu60*>4tuuq<:",
"9t8;:*&iyte<&e:&4u:+4hd0q14@4t<4",
"kgyt<w+vvvnl8>iidsqdqnccczq#dhdd",
"gghjjg+vkggjpiq450hcjllvzao4gdhg",
"ddhidgOq=@@&9wps1#cczhdgd#1uesdd",
",4yiss+psgsgdjggs:asg1<>4$#==<1<",
"<&=ih&o;=*=*-**&=#=ut0<2ty<X;843",
"jw1hhweiqo:0tetq0;+ihlllzhgX8phh",
"s8pjdddgy4ghhhhhh>&dhhgzzdu.O4qs",
"oOoOXoq9t--gjhgdds>0ddddasozzi4o",
"qpdyoyiy8o:iiuuapa;$;44604+iie4;",
"&3>4,ytt9>91<jdg44& #X2dfsyhd011",
"9ldaggdggghq;nzzgp0t4=Mmzlzczlll",
"ggpjhhjhhyhi=zzzzllle<vzlllnMzch"
};
