/* XPM */
static char *_15cdd2f36bf4853bad78201f170c075uyjTrMWbUxx9uw9J[] = {
/* columns rows colors chars-per-pixel */
"32 32 100 2 ",
"   c #35322C",
".  c #39352D",
"X  c #3B3631",
"o  c #3D3A33",
"O  c #413C35",
"+  c #443E39",
"@  c #424036",
"#  c #45423B",
"$  c #4A453D",
"%  c #4D493F",
"&  c #4B4640",
"*  c #4D4A42",
"=  c #524D44",
"-  c #545146",
";  c #585147",
":  c #565349",
">  c #5A544B",
",  c #5C584E",
"<  c #5D5651",
"1  c #5F5B50",
"2  c #60594F",
"3  c #625C53",
"4  c #665F59",
"5  c #666056",
"6  c #686157",
"7  c #676259",
"8  c #6B645B",
"9  c #6E695E",
"0  c #70675E",
"q  c #71695F",
"w  c #6F6B60",
"e  c #736D62",
"r  c #786F66",
"t  c #786F68",
"y  c #767165",
"u  c #787266",
"i  c #777268",
"p  c #7B756A",
"a  c #7E786D",
"s  c #80776E",
"d  c #807A6E",
"f  c #837D72",
"g  c #887F76",
"h  c #868074",
"j  c #898276",
"k  c #878378",
"l  c #8C857A",
"z  c #8D897D",
"x  c #8E897D",
"c  c #8F887E",
"v  c #8E8A7E",
"b  c #90877E",
"n  c #90897E",
"m  c #918A7F",
"M  c #928980",
"N  c #918A80",
"B  c #908C80",
"V  c #938D82",
"C  c #958C83",
"Z  c #948D83",
"A  c #958E82",
"S  c #918984",
"D  c #968D84",
"F  c #969285",
"G  c #979386",
"H  c #989185",
"J  c #989187",
"K  c #999386",
"L  c #9B9388",
"P  c #9A9389",
"I  c #9C938A",
"U  c #989488",
"Y  c #9C938C",
"T  c #9D968C",
"R  c #9C988C",
"E  c #9E988C",
"W  c #9F9A8E",
"Q  c #A09B8D",
"!  c #A19B91",
"~  c #A29C92",
"^  c #A19F93",
"/  c #A29C96",
"(  c #A59E94",
")  c #A2A094",
"_  c #A4A296",
"`  c #A5A397",
"'  c #A6A297",
"]  c #AAA297",
"[  c #AAA39B",
"{  c #ABA49A",
"}  c #AEA59C",
"|  c #ADA99E",
" . c #AFAAA2",
".. c #B0ACA3",
"X. c #B0ADA4",
"o. c #B6AFA5",
"O. c #B4B0A5",
"+. c #B6B6AA",
"@. c #BBB5A9",
"#. c #C8C0BB",
/* pixels */
"3 f t s t r 8 I T L C K q ' +.) ) k : { { | O.o.Q E 9 ( Q Q , % ",
", g f s t e e 2 e 5 8 q d G B j h y ) h h h h h d a p d h d a # ",
"S l g g s t e + u u 8 i s x h h h 5 m h h a d u u p y q u p u , ",
"} C M g g t s & u e e i h h h h a > j j a u u u u u 9 q 8 q y 8 ",
"t #./ Y M g g & 3 > - = * X o = % # E x s u y e e u e q 9 u 9 > ",
"w & & < ; 2 t o M g k x V M M M m m e m q y e y u u e q q u 6 , ",
"w s s p s s t o k g l c R Z M V x D e m h d p p e u h u p h e 2 ",
"+ g s p p s t O g l l l l R Y L E Q e a d d d d h j u d u u 5 > ",
"O & = = 2 @ # @ x f l C K L Q K ` U 9 a a f a a 5 u Q a p a a > ",
"4 s s p a a a m K E ~ ; = , = 3 % , % : - % % % % % % % % % : @ ",
"5 p s d a y p a d p p d k u a a h h v ` v x k x j x m ` ) ) Q % ",
"O > p s y y u a p p p p y 9 y i a h k i 9 h f f h j m Q E ' O.5 ",
"a d u p y p p i d a u a 2 6 w a a h j 9 i h d a a x Q m x k : % ",
"e a p p u p a p u p a a 6 9 y i d k j 9 9 h h y d k v v v v y 1 ",
"% - % @ % : - * > - # - 9 w y a h k v % 7 x h a i h v v v m y % ",
"3 , 6 8 9 8 a p p p d m 9 9 y a h x m e 5 1 a f f x v v G m W % ",
"w w 7 7 7 7 a a p a h a 9 9 u s u z m 9 - , $ # $ + % @ # % % % ",
"7 w w 7 w w i a a h e y l p = s y v Q 2 E p y 6 m E { m k m G d ",
"1 w w w y y T B y i e a l g j x W m Q 5 C d p q K k h d d a h h ",
"> y y y y i 3 y w y 9 u m x m G ) ` 9 8 l u q s T j h p h h h p ",
": i i i i p i i y w a w l l C % , ) , 2 h a r ; x h d a a h d p ",
"& i a i a p p i y e w e = = f a @ . - : . 5 p , u d a u a k j u ",
"  # o O X o & + X o :  .% 3 # @.l j l m e u q = d d d d d l h : ",
"o - U a a S a k k a a a l u X K l j m E q e e $ % d u d j k k 6 ",
": M a g s s f s s a g g f p . T b g b D r t e 2 3 h p h j j j q ",
"X w k a f f a f s p g g p t   [ m b b D 6 ; ; 8 Q x d d d j h 9 ",
"+ w h g g g S a a p k k D t = M b b M g 0 ; 0 q m ] d d d d j q ",
"& 1 S f g l l g f g c D D c : X O # + 3 < e q ; m l s d s h j q ",
"& 2 b l S l c S G D Y L h  .1 y u a h x 6 0 q 3 Q h h p e h h % ",
"+ 4 l S S D b 3 ( T ! Y 1 1 7 p u p k x % q q 8 Q h h h d h h 6 ",
"  > > l I p Y w X. .[ / e a a a d h p 9 @ s e 6 x j h h j x q 6 ",
"+ & $ O $ 4 e + & > > w o = o > 8 5 % p % @ @ 6 s 6 q 2 % % 2 % "
};
