/* XPM */
static char *_15d2392eb224c20b82d06a90539c883dfqwAXCuGfzVp2o6[] = {
/* columns rows colors chars-per-pixel */
"32 32 67 1 ",
"  c #4D3E27",
". c #4F3F27",
"X c #645031",
"o c #695433",
"O c #6B5634",
"+ c #6C5634",
"@ c #6D5835",
"# c #6E5836",
"$ c #705B37",
"% c #725B38",
"& c #715D38",
"* c #725D38",
"= c #735E39",
"- c #745D39",
"; c #745E3A",
": c #75603A",
"> c #76603B",
", c #78623B",
"< c #7A633D",
"1 c #7C623E",
"2 c #7B643C",
"3 c #7B643D",
"4 c #7D663D",
"5 c #816A40",
"6 c #826B40",
"7 c #836C40",
"8 c #846C42",
"9 c #876D43",
"0 c #876C44",
"q c #886D44",
"w c #8A7145",
"e c #8D7347",
"r c #8D7348",
"t c #927947",
"y c #997E4A",
"u c #9E7E4E",
"i c #9A804B",
"p c #9C824C",
"a c #9E834C",
"s c #9F844D",
"d c #A0844E",
"f c #A1854E",
"g c #A2864F",
"h c #A18150",
"j c #A38650",
"k c #A38750",
"l c #A48750",
"z c #A48751",
"x c #A58452",
"c c #A38354",
"v c #A38454",
"b c #A68756",
"n c #A78952",
"m c #A98855",
"M c #AD8A56",
"N c #AF8D57",
"B c #B08E58",
"V c #B18E58",
"C c #B38F59",
"Z c #B08F5B",
"A c #B3905A",
"S c #B5915B",
"D c #B7955E",
"F c #B8955F",
"G c #B89560",
"H c #BB9761",
"J c #BC9862",
/* pixels */
"JJssssssssDJJJSBfjJJJJJJJJJJJJss",
"JJssssssssJJJJSCffJJJHJJJJJHJJss",
"JJJJSm<>CSASfsssssfsfaSCfsBSJJss",
"JJJJSm<>SASSfassssssafCSszBSJJss",
"JJJJnfyyffjfBBAn76DDDDSCDHHHJJss",
"JJJJzsssssffAAAm3<JJJJCSHJHJJJss",
"000044677777www9>>ee997700qqre77",
"@++++@=>>>>>>>>>>>>>o@oo@o@@>>>>",
"JJfassssssJJJJjkHHssss=-CCCSCSJJ",
"JJssssssssJJJJfkGHssss=-CASASCJJ",
"ssss34MCSCSCJJjfNCSCAACSaassssas",
"ssss34MSCSCSJJfjCCCSASCCjassssss",
"JJJJJHSCJJJJJJfsasss==JJJJJJJJJJ",
"JJJJJHSCJJHHJJjsasss==JJJJJJJJJJ",
"3333-%$$%%%%%%>>3>><oO%%%%%=3333",
"====OOooOoooOo======ooooooOO====",
"bbbbvvvcvj@=erjbbbshuuuucvhvbbtt",
"GGHGHGHHHD43sjGHDGCCCCMMHJHHHHaa",
"ssssasssssJJSSAAjsaass==HHssssss",
"sssssssassHHASANjsssss==HGjassss",
"HJAAASCSHJJJssssssssAASCSCSZAAss",
"HJASAASCJJJJssssssssCSCSCSCCASss",
"==OO====ooOOoo==========OooooO==",
"==OX@===oooooo&=========oooooO==",
"HGHHDHGHGGppGGssay-=ppppCCAGGHHG",
"HHJJHJHHJJasJHdsay=&ssssCCHHHJJH",
"SSnnwrSJJJGSJJjjCAjbNNjsjnjnnbSS",
"SSjz68ZGGGJJJJjkDJSACCsjjjjnjnSS",
"JJJJjsssdsHJJHjkHHJJssAAJJGJHJJJ",
"JJJJjsssaaJJJHjjDHJJaaAAJJHHJJJJ",
"==-=;;<<oooo33OO==>===oo  Xooo==",
"==-==;1;oooO11OO@=====oO .XooO=="
};
